Coordinates
version=1
nRows=17
nColumns=40
inDegrees=yes

Units are S.I. units (second, meters, Newtons, ...)
Angles are in degrees.

endheader
time	pelvis_tilt	pelvis_list	pelvis_rotation	pelvis_tx	pelvis_ty	pelvis_tz	hip_flexion_r	hip_adduction_r	hip_rotation_r	knee_angle_r	knee_angle_r_beta	ankle_angle_r	subtalar_angle_r	mtp_angle_r	hip_flexion_l	hip_adduction_l	hip_rotation_l	knee_angle_l	knee_angle_l_beta	ankle_angle_l	subtalar_angle_l	mtp_angle_l	lumbar_extension	lumbar_bending	lumbar_rotation	arm_flex_r	arm_add_r	arm_rot_r	elbow_flex_r	pro_sup_r	wrist_flex_r	wrist_dev_r	arm_flex_l	arm_add_l	arm_rot_l	elbow_flex_l	pro_sup_l	wrist_flex_l	wrist_dev_l
      9.05750000	     -6.91066843	     -4.74555801	      7.32019129	      0.95986645	      0.91761349	      0.49399277	     -0.30229151	      2.86332960	    -17.39754370	     14.47095030	     14.47095030	     18.62419208	      1.54573112	     -0.89829719	     29.24848166	     -5.00424781	      5.60803589	     26.08365411	     26.08365411	      6.12198191	    -12.73926024	      3.02631071	     -7.73795024	      2.98312955	      4.48810698	     51.23489071	    -17.63349988	     -8.24984591	     71.74731393	     44.80014065	      0.00000000	      0.00000000	     -9.83973957	    -12.02625143	     21.21164816	     32.00725356	     43.51727427	      0.00000000	      0.00000000
      9.07628571	     -6.87293966	     -4.75604921	      6.91525429	      0.96099672	      0.91804202	      0.49002945	     -0.68268312	      2.53486633	    -17.19230060	     14.72483138	     14.72483138	     18.43071236	      1.75704476	     -0.92048316	     28.90104542	     -4.90054713	      5.43265878	     26.60205981	     26.60205981	      6.72790143	    -13.14290771	      3.01769035	     -7.75992646	      3.05418785	      4.48714963	     50.43288116	    -17.28664001	     -8.16617275	     71.07808256	     44.81878180	      0.00000000	      0.00000000	     -9.31746093	    -12.31006583	     21.07042596	     32.13111935	     43.55168181	      0.00000000	      0.00000000
      9.09507143	     -6.97074549	     -4.70197154	      6.51795885	      0.96176502	      0.91834012	      0.48586756	     -0.78218615	      1.98418984	    -17.38620532	     15.22903322	     15.22903322	     18.17371423	      2.50815140	     -1.60820702	     28.76430271	     -4.68754134	      5.22943606	     27.28853897	     27.28853897	      8.39107068	    -13.03880304	      5.54761902	     -7.58845056	      3.10496103	      4.06950460	     50.96282881	    -16.27858021	     -8.66924172	     66.50615191	     45.02939793	      0.00000000	      0.00000000	     -9.04790254	    -12.46185863	     20.14217533	     32.32048216	     43.81246467	      0.00000000	      0.00000000
      9.11385714	     -6.97524324	     -4.73914862	      6.12118753	      0.96256985	      0.91882004	      0.48191706	     -0.99133207	      1.64291480	    -17.16033232	     15.63894996	     15.63894996	     17.94811614	      2.62105731	     -1.65229287	     28.34791491	     -4.62597204	      4.96286085	     27.54475285	     27.54475285	      8.90972606	    -13.27810137	      5.40800371	     -7.61084826	      3.26278719	      4.10443629	     49.95236610	    -16.09499862	     -8.59822381	     65.85439961	     45.04615057	      0.00000000	      0.00000000	     -8.39443583	    -12.73646982	     19.98141145	     32.53012297	     43.84940029	      0.00000000	      0.00000000
      9.13264286	     -7.10769095	     -4.59487705	      5.66362301	      0.96307293	      0.91912839	      0.47791118	     -0.74262711	      0.94346996	    -17.00595851	     16.68482574	     16.68482574	     17.82830882	      2.78456716	     -2.06746976	     27.97576558	     -4.43805196	      4.35704710	     27.66342166	     27.66342166	      9.51300604	    -13.14463888	      5.39789385	     -7.51558708	      3.16679321	      4.62602987	     49.04499622	    -16.58985456	     -8.87386255	     63.80457322	     45.12902444	      0.00000000	      0.00000000	     -7.48236283	    -13.01481058	     19.64740069	     32.88554373	     43.92933974	      0.00000000	      0.00000000
      9.15142857	     -7.09987679	     -4.72885235	      5.30366957	      0.96358620	      0.91971451	      0.47398666	     -0.85079256	      0.68477790	    -16.79526286	     17.20429533	     17.20429533	     17.50191447	      2.89871616	     -2.13354311	     27.49514636	     -4.46554434	      4.12208997	     27.75133806	     27.75133806	      9.98081664	    -13.30361966	      5.28679284	     -7.62556775	      3.46873539	      4.40240899	     47.94494787	    -16.23896073	     -8.79793658	     63.11648596	     45.14535503	      0.00000000	      0.00000000	     -6.77723985	    -13.22741636	     19.54643422	     33.06115280	     43.95617663	      0.00000000	      0.00000000
      9.17021429	     -7.23115830	     -4.54210250	      4.83810654	      0.96384406	      0.91996748	      0.47008669	     -0.33885059	     -0.15003298	    -16.65657146	     18.66918045	     18.66918045	     17.08179117	      2.93970393	     -3.66528407	     27.12246676	     -4.28279459	      3.33732551	     27.86508076	     27.86508076	     10.77803806	    -12.81855109	      5.64486405	     -7.39070631	      3.35102860	      4.35453338	     47.83721032	    -15.79599121	     -9.50760489	     58.07987102	     45.36067181	      0.00000000	      0.00000000	     -5.88250203	    -13.40328888	     19.15924907	     32.88164513	     44.09527714	      0.00000000	      0.00000000
      9.18900000	     -7.24340319	     -4.39275971	      4.41401014	      0.96412854	      0.92049986	      0.46625433	      0.08575793	     -0.88025504	    -16.26930461	     20.16069993	     20.16069993	     16.81096120	      2.67013328	     -4.24640537	     26.49782842	     -4.08814949	      2.74884504	     27.70364780	     27.70364780	     11.25534613	    -12.66970411	      5.56358280	     -7.46478845	      3.30143531	      4.23326723	     46.49354347	    -15.65613074	     -9.51322272	     56.81892241	     45.40096638	      0.00000000	      0.00000000	     -5.08509830	    -13.64469373	     18.93826350	     33.13704702	     44.15241173	      0.00000000	      0.00000000
      9.20778571	     -7.19802935	     -4.34348419	      4.01276325	      0.96436485	      0.92106294	      0.46253109	      0.54207483	     -1.50993764	    -15.87868320	     21.76612388	     21.76612388	     16.42189946	      2.42788370	     -4.86440278	     25.88684484	     -3.98475056	      2.26617463	     27.64253883	     27.64253883	     11.70493998	    -12.56143091	      5.44414565	     -7.59318900	      3.36355601	      4.10189153	     44.93079497	    -15.57126455	     -9.51137088	     55.43924447	     45.44339306	      0.00000000	      0.00000000	     -4.19689138	    -13.86352249	     18.75717431	     33.35824694	     44.20022230	      0.00000000	      0.00000000
      9.22657143	     -7.24107663	     -4.21385676	      3.52154641	      0.96450953	      0.92136029	      0.45891133	      1.39424024	     -2.30994857	    -15.37881032	     23.89347759	     23.89347759	     15.92233581	      1.93000361	     -5.95875166	     25.33635807	     -3.81838722	      1.64552395	     27.53544693	     27.53544693	     12.17934049	    -12.44062605	      5.33200382	     -7.54137908	      3.35901958	      4.15677074	     43.39545894	    -15.63997197	     -9.54132655	     53.57233863	     45.50536975	      0.00000000	      0.00000000	     -3.16065303	    -14.02782962	     18.55705400	     33.52567690	     44.25716548	      0.00000000	      0.00000000
      9.24535714	     -7.15944206	     -4.20718763	      3.06103840	      0.96472065	      0.92177552	      0.45546983	      2.02436574	     -2.83978094	    -14.64156819	     25.60029257	     25.60029257	     13.78437024	      0.43178663	    -10.96159425	     24.72029983	     -3.75906548	      1.19872926	     27.53563062	     27.53563062	     12.79132734	    -12.38179630	      5.52423130	     -7.50313668	      3.51081780	      3.77411288	     42.76054077	    -15.10362206	     -9.73238108	     48.88288535	     45.68431692	      0.00000000	      0.00000000	     -1.99607088	    -13.95352006	     18.19604262	     32.60267660	     44.41818866	      0.00000000	      0.00000000
      9.26414286	     -7.05879688	     -4.11074589	      2.56758776	      0.96492142	      0.92207576	      0.45209543	      3.07324382	     -3.63687123	    -14.05377722	     28.29363840	     28.29363840	     13.03931592	     -0.26771647	    -11.93120274	     24.05390072	     -3.59334379	      0.74616160	     27.48791811	     27.48791811	     13.24327442	    -12.48004061	      5.40073094	     -7.61607735	      3.56050764	      3.58936964	     40.70547268	    -14.98390020	     -9.68332740	     47.79429187	     45.71029321	      0.00000000	      0.00000000	     -1.06594318	    -14.14010956	     17.97906668	     32.94429675	     44.47236071	      0.00000000	      0.00000000
      9.28292857	     -6.95555335	     -4.10070398	      2.06684881	      0.96511629	      0.92226341	      0.44892976	      4.13875902	     -4.17830279	    -13.10977155	     30.70247573	     30.70247573	     10.32792848	     -2.71088799	    -17.46011558	     23.46494901	     -3.48671055	      0.45575982	     27.56615422	     27.56615422	     13.76671297	    -12.75909312	      5.52401091	     -7.62006704	      3.72240855	      3.52712065	     38.87706012	    -14.91606243	     -9.78224852	     45.17190876	     45.79859841	      0.00000000	      0.00000000	      0.25989802	    -14.01898722	     17.50615214	     32.41720304	     44.65802184	      0.00000000	      0.00000000
      9.30171429	     -6.74227193	     -4.01057709	      1.52558732	      0.96532331	      0.92237147	      0.44586469	      5.50842686	     -4.94691527	    -12.33271751	     34.06623401	     34.06623401	      9.15863530	     -3.91604895	    -18.18724793	     22.74347896	     -3.30359338	      0.10840390	     27.63333427	     27.63333427	     14.25593801	    -13.08196439	      5.41601645	     -7.85880596	      3.81307726	      3.32352360	     36.60023091	    -14.78684214	     -9.73093295	     43.90545445	     45.82933690	      0.00000000	      0.00000000	      1.31834625	    -14.17927683	     17.34567258	     32.71446100	     44.70364520	      0.00000000	      0.00000000
      9.32050000	     -6.55629673	     -4.06923373	      0.97053783	      0.96553568	      0.92231710	      0.44312968	      6.99262989	     -5.29234888	    -11.08910376	     37.27940203	     37.27940203	      6.39491932	     -7.21718051	    -21.67964334	     22.14727089	     -3.24222654	     -0.03341033	     27.85559012	     27.85559012	     14.77275854	    -13.69094249	      5.67941164	     -7.87622011	      4.06582050	      3.42626766	     34.49893303	    -14.81342160	     -9.97395897	     41.15282935	     45.92991441	      0.00000000	      0.00000000	      2.92760144	    -14.00468531	     17.34005302	     31.97449745	     44.78496405	      0.00000000	      0.00000000
      9.33928571	     -6.29155229	     -3.95365035	      0.41957394	      0.96567415	      0.92201504	      0.44041564	      8.72159527	     -6.01366011	    -10.29256388	     41.20654815	     41.20654815	      4.64765495	     -8.92517074	    -21.95156915	     21.49676515	     -3.01254457	     -0.30726919	     28.13278323	     28.13278323	     15.26462617	    -14.17555716	      5.58259263	     -8.10823188	      4.14010415	      3.11279991	     32.04180858	    -14.56369271	     -9.97166351	     39.79758343	     45.96506695	      0.00000000	      0.00000000	      4.06117434	    -14.17586265	     17.20622827	     32.30066475	     44.82645159	      0.00000000	      0.00000000
      9.35807143	     -6.14446909	     -3.98447341	     -0.15725730	      0.96567875	      0.92138250	      0.43807186	     10.73136473	     -6.29012219	     -9.11315796	     45.17058287	     45.17058287	      2.37759045	    -11.83099554	    -21.91510643	     21.03862695	     -2.90910673	     -0.39335582	     28.49237223	     28.49237223	     15.74443508	    -14.93035142	      5.65241240	     -8.13321905	      4.38327872	      3.16325618	     29.43203409	    -14.60157878	    -10.09341844	     37.87254035	     46.02921681	      0.00000000	      0.00000000	      5.44792810	    -14.16029708	     17.11447400	     32.56872919	     44.87029012	      0.00000000	      0.00000000
